<svg xmlns="http://www.w3.org/2000/svg" aria-hidden="true" style="position:absolute;width:0;height:0;overflow:hidden">
  <defs>
    <symbol id="icon-Triangle" viewBox="0 0 28 32">
      <path d="M26.088 12.19c2.441 1.354 2.441 4.864 0 6.218L4.933 30.147c-2.37 1.315-5.281-.399-5.281-3.109V3.561c0-2.71 2.911-4.424 5.281-3.109l21.155 11.739z"/>
    </symbol>
    <symbol id="icon-first-click" viewBox="0 0 21 32">
      <path d="M19.042 17.529 1.832.319A1 1 0 0 0 1.076 0C.942 0 .79.034.673.084a1.08 1.08 0 0 0-.672.992v25.277c0 .437.269.824.672.992.118.05.269.084.403.084.286 0 .555-.118.756-.319l5.244-5.244 3.21 7.597a1.08 1.08 0 0 0 1.412.571l2.975-1.261a1.08 1.08 0 0 0 .571-1.412l-3.378-8h6.42c.437 0 .824-.269.992-.672a1.04 1.04 0 0 0-.235-1.16z"/>
    </symbol>
    <symbol id="icon-surveys" viewBox="0 0 41 32">
      <path d="m21.673 11.204 2.674 1.245 3.98-1.184V8.49c0-4.714-3.98-8.49-8.735-8.49-4.735 0-8.735 3.755-8.735 8.429v12.653c0 1.163-.939 2.082-2.082 2.082s-2.082-.918-2.082-2.082v-5.347H-.001v5.429a8.753 8.753 0 0 0 8.755 8.755c4.796 0 8.755-3.857 8.755-8.633V8.796c0-1.143.939-2.082 2.082-2.082s2.082.939 2.082 2.082zm10.817 4.531v5.612c0 1.143-.939 2.061-2.082 2.061s-2.082-.918-2.082-2.061v-5.51l-3.98 1.184-2.674-1.245v5.469c0 4.796 3.939 8.674 8.755 8.674a8.753 8.753 0 0 0 8.755-8.755v-5.429h-6.694z"/>
    </symbol>
    <symbol id="icon-preference" viewBox="0 0 37 32">
      <path d="M18.286 31.347c.327 0 .653-.122.898-.367l12.714-12.245c.184-.184 4.673-4.286 4.673-9.184 0-5.98-3.653-9.551-9.755-9.551-3.571 0-6.918 2.816-8.53 4.408C16.674 2.816 13.327 0 9.755 0 3.653 0 0 3.571 0 9.551c0 4.898 4.49 9 4.653 9.143L17.388 30.98c.245.245.571.367.898.367"/>
    </symbol>
    <symbol id="icon-five-second" viewBox="0 0 28 32">
      <path d="M25.143 2.286h1.714c.321 0 .571-.25.571-.571V.572a.564.564 0 0 0-.571-.571H.571A.564.564 0 0 0 0 .572v1.143c0 .321.25.571.571.571h1.714c0 6.607 3.161 11.393 6.661 13.714-3.5 2.321-6.661 7.107-6.661 13.714H.571a.564.564 0 0 0-.571.571v1.143c0 .321.25.571.571.571h26.286c.321 0 .571-.25.571-.571v-1.143a.564.564 0 0 0-.571-.571h-1.714c0-6.607-3.161-11.393-6.661-13.714 3.5-2.321 6.661-7.107 6.661-13.714m-2.286 0c0 2.607-.589 4.911-1.518 6.857H6.089c-.929-1.946-1.518-4.25-1.518-6.857zM21.839 24H5.589c1.321-3.446 3.696-5.893 6.071-6.857h4.107c2.375.964 4.75 3.411 6.071 6.857z"/>
    </symbol>
    <symbol id="icon-Path" viewBox="0 0 45 32">
      <path d="M42.12.638a2.11 2.11 0 0 0-3.023 0L13.491 26.74 3.648 16.707c-.835-.851-2.188-.851-3.023 0s-.835 2.23 0 3.081l11.354 11.574a2.11 2.11 0 0 0 3.023 0L42.119 3.719a2.21 2.21 0 0 0 0-3.081z"/>
    </symbol>
    <symbol id="icon-star-full" viewBox="0 0 34 32">
      <path d="M32.404 11.487c-.102-.296-.29-.556-.541-.749s-.553-.308-.869-.333l-9.261-.725L17.725.944c-.128-.281-.335-.52-.598-.688a1.64 1.64 0 0 0-1.764-.001 1.6 1.6 0 0 0-.599.687l-4.008 8.737-9.261.725c-.311.024-.609.136-.857.323s-.437.439-.543.728a1.58 1.58 0 0 0 .394 1.689l6.844 6.57-2.421 10.321c-.074.312-.05.639.068.938s.324.556.592.739a1.64 1.64 0 0 0 1.826.013l8.845-5.807 8.845 5.807a1.65 1.65 0 0 0 1.857-.04c.268-.193.47-.462.579-.771s.118-.644.028-.958l-2.971-10.238 7.369-6.53c.482-.429.66-1.097.452-1.704z"/>
    </symbol>
    <symbol id="icon-star-border" viewBox="0 0 34 32">
      <path d="M7.336 19.715 4.915 30.036c-.075.313-.052.64.065.94s.323.558.591.74a1.635 1.635 0 0 0 1.828.01l8.845-5.807 8.845 5.807a1.65 1.65 0 0 0 1.857-.04c.268-.193.47-.462.579-.771s.118-.644.028-.958l-2.971-10.238 7.369-6.53c.236-.209.404-.482.485-.785s.069-.622-.033-.918-.29-.556-.54-.748-.553-.308-.869-.332l-9.261-.726L17.725.944c-.128-.281-.336-.52-.598-.688a1.635 1.635 0 0 0-2.362.688L10.757 9.68l-9.261.725c-.311.024-.609.136-.857.323s-.437.439-.543.728a1.58 1.58 0 0 0 .394 1.689zm4.635-6.92c.29-.023.568-.121.806-.286s.426-.39.545-.651l2.923-6.368 2.923 6.368a1.627 1.627 0 0 0 1.351.937l6.452.504-5.314 4.709a1.59 1.59 0 0 0-.476 1.628l2.036 7.014-6.069-3.985a1.63 1.63 0 0 0-1.802 0l-6.342 4.164 1.706-7.272a1.58 1.58 0 0 0-.448-1.504l-4.935-4.738z"/>
    </symbol>
    <symbol id="icon-instagram" viewBox="0 0 32 32">
      <path stroke-linecap="round" stroke-linejoin="round" stroke-width="2.667" d="M22.667 2.667H9.334a6.667 6.667 0 0 0-6.667 6.667v13.333a6.667 6.667 0 0 0 6.667 6.667h13.333a6.667 6.667 0 0 0 6.667-6.667V9.334a6.667 6.667 0 0 0-6.667-6.667"/>
      <path stroke-linecap="round" stroke-linejoin="round" stroke-width="2.667" d="M21.333 15.16a5.338 5.338 0 0 1-6.123 6.049 5.334 5.334 0 1 1 6.124-6.048zM23.333 8.667h.013"/>
    </symbol>
    <symbol id="icon-facebook" viewBox="0 0 32 32">
      <path stroke-linecap="round" stroke-linejoin="round" stroke-width="2.667" d="M24 2.667h-4a6.67 6.67 0 0 0-6.667 6.667v4h-4v5.333h4v10.667h5.333V18.667h4l1.333-5.333h-5.333v-4A1.334 1.334 0 0 1 20 8h4z"/>
    </symbol>
    <symbol id="icon-twitter" viewBox="0 0 32 32">
      <path stroke-linecap="round" stroke-linejoin="round" stroke-width="2.667" d="M30.667 4.013a14.5 14.5 0 0 1-4.187 2.04 5.975 5.975 0 0 0-6.637-1.661A5.979 5.979 0 0 0 16 10.053v1.333a14.21 14.21 0 0 1-12-6.04s-5.333 12 6.667 17.333a15.52 15.52 0 0 1-9.333 2.667c12 6.667 26.667 0 26.667-15.333a6 6 0 0 0-.107-1.107 10.3 10.3 0 0 0 2.773-4.893"/>
    </symbol>
    <symbol id="icon-mobile-screen" viewBox="0 0 21 32">
      <path d="M16.935 2.286H3.636c-1.377 0-2.494 1.152-2.494 2.571v22.286c0 1.42 1.117 2.571 2.494 2.571h13.299c1.377 0 2.494-1.152 2.494-2.571V4.857c0-1.42-1.117-2.571-2.494-2.571m-4.156 23.952c0 .52-.374.905-.831.905H8.577c-.41 0-.784-.386-.784-.857s.374-.857.831-.857h3.325c.457 0 .831.386.831.809zm3.325-3.381H4.468V5.714h11.636z"/>
    </symbol>
    <symbol id="icon-01" viewBox="0 0 32 32">
      <path fill="#d6b1ff" d="M24 13.333h8L28 8zm0 5.334h8L28 24z" style="fill:var(--color1, #d6b1ff)"/>
      <path fill="#02897a" d="M1.333 0h8v32h-8a1.334 1.334 0 0 1-1.334-1.334V1.333A1.335 1.335 0 0 1 1.333-.001zM12 0h8a1.335 1.335 0 0 1 1.334 1.334v29.333A1.334 1.334 0 0 1 20 32.001h-8z" style="fill:var(--color2, #02897a)"/>
    </symbol>
    <symbol id="icon-04" viewBox="0 0 32 32">
      <path fill="#d6b1ff" d="M28 32H16a1.334 1.334 0 0 1-1.334-1.334v-2.667A1.334 1.334 0 0 1 16 26.665h12a1.334 1.334 0 0 1 1.334 1.334v2.667A1.334 1.334 0 0 1 28 32" style="fill:var(--color1, #d6b1ff)"/>
      <path fill="#11b5e4" d="M28 0H4a1.335 1.335 0 0 0-1.334 1.334v2.667A1.335 1.335 0 0 0 4 5.335h24a1.335 1.335 0 0 0 1.334-1.334V1.334A1.334 1.334 0 0 0 28 0M28 8H4a1.335 1.335 0 0 0-1.334 1.334v13.333A1.335 1.335 0 0 0 4 24.001h24a1.334 1.334 0 0 0 1.334-1.334V9.334A1.334 1.334 0 0 0 28 8" style="fill:var(--color3, #11b5e4)"/>
    </symbol>
    <symbol id="icon-05" viewBox="0 0 32 32">
      <path fill="#d6b1ff" d="M6.667 1.333h-4a1.335 1.335 0 0 0-1.334 1.334v26.667a1.335 1.335 0 0 0 1.334 1.334h4V1.335z" style="fill:var(--color1, #d6b1ff)"/>
      <path fill="#f03e3d" d="M9.333 30.667h13.333V1.334H9.333zM16 25.333a1.334 1.334 0 1 1 0-2.667 1.334 1.334 0 0 1 0 2.667m0-18.666a1.335 1.335 0 0 1 .943 2.277A1.334 1.334 0 1 1 16 6.667m0 8a1.334 1.334 0 1 1 0 2.667 1.334 1.334 0 0 1 0-2.667M29.333 1.333h-4v29.333h4a1.334 1.334 0 0 0 1.334-1.334V2.665a1.334 1.334 0 0 0-1.334-1.334z" style="fill:var(--color4, #f03e3d)"/>
    </symbol>
    <symbol id="icon-minus_circle" viewBox="0 0 32 32">
      <path d="M0 16C0 7.168 7.168 0 16 0s16 7.168 16 16-7.168 16-16 16S0 24.832 0 16m8 1.6h16v-3.2H8z"/>
    </symbol>
    <symbol id="icon-plus_circle" viewBox="0 0 32 32">
      <path d="M0 16C0 7.168 7.168 0 16 0s16 7.168 16 16-7.168 16-16 16S0 24.832 0 16m17.6 1.6H24v-3.2h-6.4V8h-3.2v6.4H8v3.2h6.4V24h3.2z"/>
    </symbol>
    <symbol id="icon-Frame" viewBox="0 0 32 32">
      <path d="M16 29.333c7.352 0 13.333-5.981 13.333-13.333S23.352 2.667 16 2.667 2.667 8.648 2.667 16 8.648 29.333 16 29.333m0-24c5.881 0 10.667 4.785 10.667 10.667S21.882 26.667 16 26.667 5.333 21.882 5.333 16 10.118 5.333 16 5.333"/>
      <path d="M25.333 16A9.334 9.334 0 0 0 16 6.667v18.667c5.153 0 9.333-4.179 9.333-9.333z"/>
    </symbol>
    <symbol id="icon-circle_right" viewBox="0 0 32 32">
      <path d="M17.872 17.6H8v-3.2h9.872l-4.128-4.144L16 8l8 8-8 8-2.256-2.256z"/>
      <path d="M0 16c0 8.836 7.163 16 16 16s16-7.164 16-16S24.836 0 16 0 0 7.163 0 16m3.2 0C3.2 8.931 8.931 3.2 16 3.2S28.8 8.931 28.8 16 23.069 28.8 16 28.8 3.2 23.069 3.2 16"/>
    </symbol>
    <symbol id="icon-menu" viewBox="0 0 29 32">
      <path stroke-linecap="round" stroke-linejoin="round" stroke-width="3.097" d="M3.613 16H25.29M3.613 8H25.29M3.613 24H25.29"/>
    </symbol>
  </defs>
</svg>